<mxfile host="app.diagrams.net" agent="Mozilla/5.0 (Windows NT 10.0; Win64; x64) AppleWebKit/537.36 (KHTML, like Gecko) Chrome/131.0.0.0 Safari/537.36 OPR/116.0.0.0" version="26.0.11">
  <diagram name="Page-1" id="ubHALwZVzQvEq1P-bRsI">
    <mxGraphModel dx="1392" dy="761" grid="1" gridSize="10" guides="1" tooltips="1" connect="1" arrows="1" fold="1" page="1" pageScale="1" pageWidth="850" pageHeight="1100" math="0" shadow="0">
      <root>
        <mxCell id="0" />
        <mxCell id="1" parent="0" />
        <mxCell id="gjVo7Fwt4yaSElEyh383-1" value="Web Scrapper&amp;nbsp;" style="html=1;dashed=0;whiteSpace=wrap;fontSize=20;" vertex="1" parent="1">
          <mxGeometry x="210" y="170" width="100" height="50" as="geometry" />
        </mxCell>
        <mxCell id="gjVo7Fwt4yaSElEyh383-2" value="User&amp;nbsp;" style="html=1;dashed=0;whiteSpace=wrap;shape=mxgraph.dfd.externalEntity" vertex="1" parent="1">
          <mxGeometry y="160" width="100" height="100" as="geometry" />
        </mxCell>
        <mxCell id="gjVo7Fwt4yaSElEyh383-3" value="Id" style="autosize=1;part=1;resizable=0;strokeColor=inherit;fillColor=inherit;gradientColor=inherit;" vertex="1" parent="gjVo7Fwt4yaSElEyh383-2">
          <mxGeometry width="20" height="20" relative="1" as="geometry">
            <mxPoint x="15" y="15" as="offset" />
          </mxGeometry>
        </mxCell>
        <mxCell id="gjVo7Fwt4yaSElEyh383-4" value="Lv 0 - DFD" style="html=1;dashed=0;whiteSpace=wrap;shape=mxgraph.dfd.start" vertex="1" parent="1">
          <mxGeometry y="40" width="80" height="30" as="geometry" />
        </mxCell>
        <mxCell id="gjVo7Fwt4yaSElEyh383-8" value="" style="endArrow=classic;html=1;rounded=0;exitX=0;exitY=0;exitDx=100;exitDy=55;exitPerimeter=0;entryX=0;entryY=0.5;entryDx=0;entryDy=0;" edge="1" parent="1" source="gjVo7Fwt4yaSElEyh383-2" target="gjVo7Fwt4yaSElEyh383-1">
          <mxGeometry width="50" height="50" relative="1" as="geometry">
            <mxPoint x="130" y="230" as="sourcePoint" />
            <mxPoint x="180" y="180" as="targetPoint" />
          </mxGeometry>
        </mxCell>
        <mxCell id="gjVo7Fwt4yaSElEyh383-10" value="" style="endArrow=none;dashed=1;html=1;dashPattern=1 3;strokeWidth=2;rounded=0;" edge="1" parent="1">
          <mxGeometry width="50" height="50" relative="1" as="geometry">
            <mxPoint x="160" y="260" as="sourcePoint" />
            <mxPoint x="390" y="100" as="targetPoint" />
            <Array as="points">
              <mxPoint x="160" y="210" />
              <mxPoint x="160" y="120" />
              <mxPoint x="260" y="30" />
            </Array>
          </mxGeometry>
        </mxCell>
        <mxCell id="gjVo7Fwt4yaSElEyh383-11" value="" style="endArrow=none;dashed=1;html=1;dashPattern=1 3;strokeWidth=2;rounded=0;" edge="1" parent="1">
          <mxGeometry width="50" height="50" relative="1" as="geometry">
            <mxPoint x="160" y="260" as="sourcePoint" />
            <mxPoint x="370" y="90" as="targetPoint" />
            <Array as="points">
              <mxPoint x="270" y="260" />
              <mxPoint x="380" y="270" />
              <mxPoint x="380" y="200" />
            </Array>
          </mxGeometry>
        </mxCell>
        <mxCell id="gjVo7Fwt4yaSElEyh383-12" value="" style="endArrow=classic;html=1;rounded=0;" edge="1" parent="1" target="gjVo7Fwt4yaSElEyh383-13">
          <mxGeometry width="50" height="50" relative="1" as="geometry">
            <mxPoint x="310" y="200" as="sourcePoint" />
            <mxPoint x="500" y="200" as="targetPoint" />
          </mxGeometry>
        </mxCell>
        <mxCell id="gjVo7Fwt4yaSElEyh383-13" value="Target Web Site" style="html=1;dashed=0;whiteSpace=wrap;shape=mxgraph.dfd.externalEntity" vertex="1" parent="1">
          <mxGeometry x="450" y="150" width="100" height="100" as="geometry" />
        </mxCell>
        <mxCell id="gjVo7Fwt4yaSElEyh383-14" value="Id" style="autosize=1;part=1;resizable=0;strokeColor=inherit;fillColor=inherit;gradientColor=inherit;" vertex="1" parent="gjVo7Fwt4yaSElEyh383-13">
          <mxGeometry width="20" height="20" relative="1" as="geometry">
            <mxPoint x="15" y="15" as="offset" />
          </mxGeometry>
        </mxCell>
        <mxCell id="gjVo7Fwt4yaSElEyh383-15" value="Search Site for Query" style="shape=ellipse;html=1;dashed=0;whiteSpace=wrap;perimeter=ellipsePerimeter;" vertex="1" parent="1">
          <mxGeometry x="450" y="370" width="100" height="50" as="geometry" />
        </mxCell>
        <mxCell id="gjVo7Fwt4yaSElEyh383-19" value="" style="endArrow=classic;html=1;rounded=0;exitX=0;exitY=0.5;exitDx=0;exitDy=0;entryX=0.66;entryY=1.06;entryDx=0;entryDy=0;entryPerimeter=0;" edge="1" parent="1" source="gjVo7Fwt4yaSElEyh383-15" target="gjVo7Fwt4yaSElEyh383-1">
          <mxGeometry width="50" height="50" relative="1" as="geometry">
            <mxPoint x="430" y="380" as="sourcePoint" />
            <mxPoint x="480" y="330" as="targetPoint" />
          </mxGeometry>
        </mxCell>
        <mxCell id="gjVo7Fwt4yaSElEyh383-20" value="" style="endArrow=classic;html=1;rounded=0;entryX=1.05;entryY=0.93;entryDx=0;entryDy=0;entryPerimeter=0;exitX=0.5;exitY=1;exitDx=0;exitDy=0;" edge="1" parent="1" source="gjVo7Fwt4yaSElEyh383-1" target="gjVo7Fwt4yaSElEyh383-2">
          <mxGeometry width="50" height="50" relative="1" as="geometry">
            <mxPoint x="160" y="330" as="sourcePoint" />
            <mxPoint x="210" y="280" as="targetPoint" />
          </mxGeometry>
        </mxCell>
        <mxCell id="gjVo7Fwt4yaSElEyh383-22" value="House Shaped Circle of Trust" style="text;html=1;align=center;verticalAlign=middle;whiteSpace=wrap;rounded=0;" vertex="1" parent="1">
          <mxGeometry x="230" y="90" width="60" height="30" as="geometry" />
        </mxCell>
        <mxCell id="gjVo7Fwt4yaSElEyh383-23" value="Search Query" style="text;html=1;align=center;verticalAlign=middle;whiteSpace=wrap;rounded=0;" vertex="1" parent="1">
          <mxGeometry x="110" y="170" width="60" height="30" as="geometry" />
        </mxCell>
        <mxCell id="gjVo7Fwt4yaSElEyh383-24" value="Search Query&lt;div&gt;&lt;br&gt;&lt;/div&gt;" style="text;html=1;align=center;verticalAlign=middle;whiteSpace=wrap;rounded=0;" vertex="1" parent="1">
          <mxGeometry x="390" y="180" width="60" height="30" as="geometry" />
        </mxCell>
        <mxCell id="gjVo7Fwt4yaSElEyh383-25" value="" style="endArrow=classic;html=1;rounded=0;exitX=0;exitY=0;exitDx=55;exitDy=100;exitPerimeter=0;entryX=0.5;entryY=0;entryDx=0;entryDy=0;" edge="1" parent="1" source="gjVo7Fwt4yaSElEyh383-13" target="gjVo7Fwt4yaSElEyh383-15">
          <mxGeometry width="50" height="50" relative="1" as="geometry">
            <mxPoint x="505" y="250" as="sourcePoint" />
            <mxPoint x="520" y="290" as="targetPoint" />
          </mxGeometry>
        </mxCell>
        <mxCell id="gjVo7Fwt4yaSElEyh383-27" value="Process site and log relevant URLs" style="text;html=1;align=center;verticalAlign=middle;whiteSpace=wrap;rounded=0;" vertex="1" parent="1">
          <mxGeometry x="540" y="300" width="60" height="30" as="geometry" />
        </mxCell>
        <mxCell id="gjVo7Fwt4yaSElEyh383-28" value="store data and create links for user" style="text;html=1;align=center;verticalAlign=middle;whiteSpace=wrap;rounded=0;" vertex="1" parent="1">
          <mxGeometry x="310" y="340" width="60" height="30" as="geometry" />
        </mxCell>
        <mxCell id="gjVo7Fwt4yaSElEyh383-29" value="Show user hyperlinks to query references, and allow offline access to scrapped data&lt;div&gt;&lt;br&gt;&lt;/div&gt;" style="text;html=1;align=center;verticalAlign=middle;whiteSpace=wrap;rounded=0;" vertex="1" parent="1">
          <mxGeometry x="110" y="320" width="60" height="30" as="geometry" />
        </mxCell>
        <mxCell id="gjVo7Fwt4yaSElEyh383-32" value="Lv 1 - DFD" style="html=1;dashed=0;whiteSpace=wrap;shape=mxgraph.dfd.start" vertex="1" parent="1">
          <mxGeometry x="10" y="520" width="80" height="30" as="geometry" />
        </mxCell>
        <mxCell id="gjVo7Fwt4yaSElEyh383-33" value="User" style="html=1;dashed=0;whiteSpace=wrap;shape=mxgraph.dfd.externalEntity" vertex="1" parent="1">
          <mxGeometry y="730" width="100" height="100" as="geometry" />
        </mxCell>
        <mxCell id="gjVo7Fwt4yaSElEyh383-34" value="Id" style="autosize=1;part=1;resizable=0;strokeColor=inherit;fillColor=inherit;gradientColor=inherit;" vertex="1" parent="gjVo7Fwt4yaSElEyh383-33">
          <mxGeometry width="20" height="20" relative="1" as="geometry">
            <mxPoint x="15" y="15" as="offset" />
          </mxGeometry>
        </mxCell>
        <mxCell id="gjVo7Fwt4yaSElEyh383-35" value="Web Scrapper" style="html=1;dashed=0;whiteSpace=wrap;" vertex="1" parent="1">
          <mxGeometry x="400" y="730" width="100" height="50" as="geometry" />
        </mxCell>
        <mxCell id="gjVo7Fwt4yaSElEyh383-36" value="Web Site" style="html=1;dashed=0;whiteSpace=wrap;shape=mxgraph.dfd.externalEntity" vertex="1" parent="1">
          <mxGeometry x="750" y="730" width="100" height="100" as="geometry" />
        </mxCell>
        <mxCell id="gjVo7Fwt4yaSElEyh383-37" value="Id" style="autosize=1;part=1;resizable=0;strokeColor=inherit;fillColor=inherit;gradientColor=inherit;" vertex="1" parent="gjVo7Fwt4yaSElEyh383-36">
          <mxGeometry width="20" height="20" relative="1" as="geometry">
            <mxPoint x="15" y="15" as="offset" />
          </mxGeometry>
        </mxCell>
        <mxCell id="gjVo7Fwt4yaSElEyh383-38" value="Search for query &amp;amp; log results" style="shape=ellipse;html=1;dashed=0;whiteSpace=wrap;perimeter=ellipsePerimeter;" vertex="1" parent="1">
          <mxGeometry x="580" y="960" width="100" height="50" as="geometry" />
        </mxCell>
        <mxCell id="gjVo7Fwt4yaSElEyh383-39" value="Data Store" style="shape=cylinder;whiteSpace=wrap;html=1;boundedLbl=1;backgroundOutline=1;" vertex="1" parent="1">
          <mxGeometry x="420" y="570" width="60" height="80" as="geometry" />
        </mxCell>
        <mxCell id="gjVo7Fwt4yaSElEyh383-40" value="User Input - Search Query" style="shape=ellipse;html=1;dashed=0;whiteSpace=wrap;perimeter=ellipsePerimeter;" vertex="1" parent="1">
          <mxGeometry x="170" y="650" width="90" height="90" as="geometry" />
        </mxCell>
        <mxCell id="gjVo7Fwt4yaSElEyh383-41" value="" style="endArrow=none;dashed=1;html=1;dashPattern=1 3;strokeWidth=2;rounded=0;" edge="1" parent="1">
          <mxGeometry width="50" height="50" relative="1" as="geometry">
            <mxPoint x="320" y="840" as="sourcePoint" />
            <mxPoint x="320" y="520" as="targetPoint" />
          </mxGeometry>
        </mxCell>
        <mxCell id="gjVo7Fwt4yaSElEyh383-42" value="" style="endArrow=none;dashed=1;html=1;dashPattern=1 3;strokeWidth=2;rounded=0;" edge="1" parent="1">
          <mxGeometry width="50" height="50" relative="1" as="geometry">
            <mxPoint x="320" y="520" as="sourcePoint" />
            <mxPoint x="560" y="520" as="targetPoint" />
          </mxGeometry>
        </mxCell>
        <mxCell id="gjVo7Fwt4yaSElEyh383-43" value="" style="endArrow=none;dashed=1;html=1;dashPattern=1 3;strokeWidth=2;rounded=0;" edge="1" parent="1">
          <mxGeometry width="50" height="50" relative="1" as="geometry">
            <mxPoint x="560" y="840" as="sourcePoint" />
            <mxPoint x="560" y="520" as="targetPoint" />
          </mxGeometry>
        </mxCell>
        <mxCell id="gjVo7Fwt4yaSElEyh383-44" value="" style="endArrow=none;dashed=1;html=1;dashPattern=1 3;strokeWidth=2;rounded=0;" edge="1" parent="1">
          <mxGeometry width="50" height="50" relative="1" as="geometry">
            <mxPoint x="320" y="840" as="sourcePoint" />
            <mxPoint x="560" y="840" as="targetPoint" />
          </mxGeometry>
        </mxCell>
        <mxCell id="gjVo7Fwt4yaSElEyh383-45" value="" style="endArrow=classic;html=1;rounded=0;entryX=0.5;entryY=1;entryDx=0;entryDy=0;exitX=0.5;exitY=0;exitDx=0;exitDy=0;" edge="1" parent="1" source="gjVo7Fwt4yaSElEyh383-35" target="gjVo7Fwt4yaSElEyh383-39">
          <mxGeometry width="50" height="50" relative="1" as="geometry">
            <mxPoint x="440" y="730" as="sourcePoint" />
            <mxPoint x="490" y="680" as="targetPoint" />
          </mxGeometry>
        </mxCell>
        <mxCell id="gjVo7Fwt4yaSElEyh383-46" value="" style="endArrow=classic;html=1;rounded=0;entryX=0.067;entryY=0.756;entryDx=0;entryDy=0;entryPerimeter=0;exitX=1.01;exitY=0.45;exitDx=0;exitDy=0;exitPerimeter=0;" edge="1" parent="1" source="gjVo7Fwt4yaSElEyh383-33" target="gjVo7Fwt4yaSElEyh383-40">
          <mxGeometry width="50" height="50" relative="1" as="geometry">
            <mxPoint x="100" y="770" as="sourcePoint" />
            <mxPoint x="150" y="720" as="targetPoint" />
          </mxGeometry>
        </mxCell>
        <mxCell id="gjVo7Fwt4yaSElEyh383-47" value="" style="endArrow=classic;html=1;rounded=0;exitX=0.989;exitY=0.611;exitDx=0;exitDy=0;exitPerimeter=0;entryX=0;entryY=0.5;entryDx=0;entryDy=0;" edge="1" parent="1" source="gjVo7Fwt4yaSElEyh383-40" target="gjVo7Fwt4yaSElEyh383-35">
          <mxGeometry width="50" height="50" relative="1" as="geometry">
            <mxPoint x="280" y="740" as="sourcePoint" />
            <mxPoint x="330" y="690" as="targetPoint" />
          </mxGeometry>
        </mxCell>
        <mxCell id="gjVo7Fwt4yaSElEyh383-48" value="" style="endArrow=classic;html=1;rounded=0;exitX=1;exitY=0.5;exitDx=0;exitDy=0;entryX=0;entryY=0;entryDx=0;entryDy=45;entryPerimeter=0;" edge="1" parent="1" source="gjVo7Fwt4yaSElEyh383-35" target="gjVo7Fwt4yaSElEyh383-36">
          <mxGeometry width="50" height="50" relative="1" as="geometry">
            <mxPoint x="590" y="790" as="sourcePoint" />
            <mxPoint x="640" y="740" as="targetPoint" />
          </mxGeometry>
        </mxCell>
        <mxCell id="gjVo7Fwt4yaSElEyh383-49" value="" style="endArrow=classic;html=1;rounded=0;exitX=0;exitY=0;exitDx=32.5;exitDy=100;exitPerimeter=0;" edge="1" parent="1" source="gjVo7Fwt4yaSElEyh383-36" target="gjVo7Fwt4yaSElEyh383-38">
          <mxGeometry width="50" height="50" relative="1" as="geometry">
            <mxPoint x="660" y="900" as="sourcePoint" />
            <mxPoint x="710" y="850" as="targetPoint" />
          </mxGeometry>
        </mxCell>
        <mxCell id="gjVo7Fwt4yaSElEyh383-50" value="" style="endArrow=classic;html=1;rounded=0;entryX=0.4;entryY=1.08;entryDx=0;entryDy=0;entryPerimeter=0;" edge="1" parent="1" source="gjVo7Fwt4yaSElEyh383-38" target="gjVo7Fwt4yaSElEyh383-35">
          <mxGeometry width="50" height="50" relative="1" as="geometry">
            <mxPoint x="520" y="980" as="sourcePoint" />
            <mxPoint x="570" y="930" as="targetPoint" />
          </mxGeometry>
        </mxCell>
        <mxCell id="gjVo7Fwt4yaSElEyh383-51" value="Show user hyper-links for query references &amp;amp; allow download of scrapped data" style="shape=ellipse;html=1;dashed=0;whiteSpace=wrap;perimeter=ellipsePerimeter;" vertex="1" parent="1">
          <mxGeometry x="155" y="830" width="135" height="140" as="geometry" />
        </mxCell>
        <mxCell id="gjVo7Fwt4yaSElEyh383-52" value="" style="endArrow=classic;html=1;rounded=0;entryX=0.926;entryY=0.257;entryDx=0;entryDy=0;entryPerimeter=0;exitX=0;exitY=1;exitDx=0;exitDy=0;" edge="1" parent="1" source="gjVo7Fwt4yaSElEyh383-35" target="gjVo7Fwt4yaSElEyh383-51">
          <mxGeometry width="50" height="50" relative="1" as="geometry">
            <mxPoint x="260" y="820" as="sourcePoint" />
            <mxPoint x="310" y="770" as="targetPoint" />
          </mxGeometry>
        </mxCell>
        <mxCell id="gjVo7Fwt4yaSElEyh383-54" value="" style="endArrow=classic;html=1;rounded=0;exitX=-0.033;exitY=0.413;exitDx=0;exitDy=0;exitPerimeter=0;entryX=0.689;entryY=0.021;entryDx=0;entryDy=0;entryPerimeter=0;" edge="1" parent="1" source="gjVo7Fwt4yaSElEyh383-39" target="gjVo7Fwt4yaSElEyh383-51">
          <mxGeometry width="50" height="50" relative="1" as="geometry">
            <mxPoint x="320" y="600" as="sourcePoint" />
            <mxPoint x="280" y="510" as="targetPoint" />
          </mxGeometry>
        </mxCell>
        <mxCell id="gjVo7Fwt4yaSElEyh383-56" value="" style="endArrow=classic;html=1;rounded=0;entryX=1;entryY=1;entryDx=0;entryDy=0;entryPerimeter=0;exitX=0.037;exitY=0.286;exitDx=0;exitDy=0;exitPerimeter=0;" edge="1" parent="1" source="gjVo7Fwt4yaSElEyh383-51" target="gjVo7Fwt4yaSElEyh383-33">
          <mxGeometry width="50" height="50" relative="1" as="geometry">
            <mxPoint x="40" y="930" as="sourcePoint" />
            <mxPoint x="90" y="880" as="targetPoint" />
          </mxGeometry>
        </mxCell>
        <mxCell id="gjVo7Fwt4yaSElEyh383-57" value="search website for relevant keywords" style="text;html=1;align=center;verticalAlign=middle;whiteSpace=wrap;rounded=0;" vertex="1" parent="1">
          <mxGeometry x="610" y="710" width="60" height="30" as="geometry" />
        </mxCell>
        <mxCell id="gjVo7Fwt4yaSElEyh383-58" value="Store scraped data" style="text;html=1;align=center;verticalAlign=middle;whiteSpace=wrap;rounded=0;" vertex="1" parent="1">
          <mxGeometry x="460" y="670" width="60" height="30" as="geometry" />
        </mxCell>
        <mxCell id="gjVo7Fwt4yaSElEyh383-59" value="send user files" style="text;html=1;align=center;verticalAlign=middle;whiteSpace=wrap;rounded=0;" vertex="1" parent="1">
          <mxGeometry x="330" y="620" width="60" height="30" as="geometry" />
        </mxCell>
        <mxCell id="gjVo7Fwt4yaSElEyh383-60" value="" style="endArrow=classic;html=1;rounded=0;exitX=0.57;exitY=-0.01;exitDx=0;exitDy=0;exitPerimeter=0;entryX=0.15;entryY=0.05;entryDx=0;entryDy=0;entryPerimeter=0;" edge="1" parent="1" source="gjVo7Fwt4yaSElEyh383-33" target="gjVo7Fwt4yaSElEyh383-39">
          <mxGeometry width="50" height="50" relative="1" as="geometry">
            <mxPoint x="90" y="640" as="sourcePoint" />
            <mxPoint x="140" y="590" as="targetPoint" />
            <Array as="points">
              <mxPoint x="80" y="600" />
            </Array>
          </mxGeometry>
        </mxCell>
        <mxCell id="gjVo7Fwt4yaSElEyh383-61" value="User Requests Download" style="text;html=1;align=center;verticalAlign=middle;whiteSpace=wrap;rounded=0;" vertex="1" parent="1">
          <mxGeometry x="130" y="550" width="60" height="30" as="geometry" />
        </mxCell>
        <mxCell id="gjVo7Fwt4yaSElEyh383-62" value="User Storage" style="shape=cylinder;whiteSpace=wrap;html=1;boundedLbl=1;backgroundOutline=1;" vertex="1" parent="1">
          <mxGeometry x="20" y="945" width="60" height="80" as="geometry" />
        </mxCell>
        <mxCell id="gjVo7Fwt4yaSElEyh383-63" value="" style="endArrow=classic;html=1;rounded=0;exitX=0;exitY=0;exitDx=55;exitDy=100;exitPerimeter=0;entryX=0.5;entryY=0;entryDx=0;entryDy=0;" edge="1" parent="1" source="gjVo7Fwt4yaSElEyh383-33" target="gjVo7Fwt4yaSElEyh383-62">
          <mxGeometry width="50" height="50" relative="1" as="geometry">
            <mxPoint x="-70" y="930" as="sourcePoint" />
            <mxPoint x="-20" y="880" as="targetPoint" />
          </mxGeometry>
        </mxCell>
        <mxCell id="gjVo7Fwt4yaSElEyh383-64" value="save&lt;div&gt;data&lt;/div&gt;" style="text;html=1;align=center;verticalAlign=middle;whiteSpace=wrap;rounded=0;" vertex="1" parent="1">
          <mxGeometry y="860" width="60" height="30" as="geometry" />
        </mxCell>
        <mxCell id="gjVo7Fwt4yaSElEyh383-65" value="UI" style="text;html=1;align=center;verticalAlign=middle;whiteSpace=wrap;rounded=0;" vertex="1" parent="1">
          <mxGeometry x="100" y="720" width="60" height="30" as="geometry" />
        </mxCell>
        <mxCell id="gjVo7Fwt4yaSElEyh383-66" value="format&lt;div&gt;data&lt;/div&gt;&lt;div&gt;into&lt;/div&gt;&lt;div&gt;proper&amp;nbsp;&lt;/div&gt;&lt;div&gt;storage&lt;/div&gt;&lt;div&gt;format&lt;/div&gt;&lt;div&gt;&lt;br&gt;&lt;/div&gt;" style="text;html=1;align=center;verticalAlign=middle;whiteSpace=wrap;rounded=0;" vertex="1" parent="1">
          <mxGeometry x="460" y="890" width="60" height="30" as="geometry" />
        </mxCell>
      </root>
    </mxGraphModel>
  </diagram>
</mxfile>
